<?xml version="1.0" encoding="utf-8"?>
<!-- Generator: Adobe Illustrator 26.5.0, SVG Export Plug-In . SVG Version: 6.00 Build 0)  -->
<svg version="1.1" id="Layer_1" xmlns="http://www.w3.org/2000/svg" xmlns:xlink="http://www.w3.org/1999/xlink" x="0px" y="0px"
	 viewBox="0 0 2500 2500" style="enable-background:new 0 0 2500 2500;" xml:space="preserve">
<style type="text/css">
	.st0{fill:#FFDB70;}
	.st1{opacity:0.4;fill:#FFDB70;enable-background:new    ;}
	.st2{opacity:0.4;fill:#A0A6AA;enable-background:new    ;}
	.st3{fill:#FFFFFF;}
</style>
<g>
	<path class="st0" d="M2477.1,1952.5c0-14.9-12-26.9-26.9-26.9h-223.1c34.2-14.7,58.2-48.7,58.2-88.3V639.5
		c0-53.2-43.2-96.2-96.2-96.2H1475v118.3h691.9v1153.7H333V661.5h807.1V543.2H311c-53.2,0-96.2,43-96.2,96.2v1197.9
		c0,39.6,24,73.7,58.2,88.3H49.7c-14.9,0-26.9,12-26.9,26.9v56.4H23c2.3,77.2,65.8,139.2,143.5,139.2h2167.1
		c77.8,0,141.2-61.8,143.5-139.2h0.2v-56.6H2477.1z M2453.1,2028.8H46.8c-1.6-6.5-2.5-13.1-3-19.9H888c7.2-5.9,16.5-9.5,26.5-9.5
		h670.9c10,0,19.2,3.4,26.5,9.5h844.4C2455.6,2015.7,2454.7,2022.3,2453.1,2028.8z"/>
</g>
<g>
	<g>
		<g>
			<g>
				<path class="st1" d="M1320.4,1315l-72.6,81l-72.6-81h47v-228.1c17,1.3,34,1.3,51.1,0v228.3h47.1V1315z"/>
				<path class="st2" d="M1273.4,1016.1v70.8c-17,1.3-34,1.3-51.1,0v-70.8H1273.4z"/>
				<g>
					<path class="st1" d="M717,926.2v141.4h47l-72.6,81l-72.6-81h47V916.7c0-72.6,59-131.5,131.5-131.5h90.1
						c3,17.2,7.2,34.2,12.7,51.1h-93.4C757.3,836.2,717,876.5,717,926.2z"/>
					<path class="st2" d="M984,785.3v51.1h-83.7c-5.6-16.7-9.7-33.7-12.7-51.1H984z"/>
				</g>
				<g>
					<path class="st1" d="M1880.9,1067.6l-72.6,81l-72.6-81h47V926.2c0-49.6-40.3-90-90-90h-97.5c5.6-16.7,9.7-33.7,12.7-51.1h94.1
						c72.6,0,131.5,59,131.5,131.5v150.9L1880.9,1067.6L1880.9,1067.6z"/>
					<path class="st2" d="M1608.2,785.3c-3,17.2-7.2,34.2-12.7,51.1h-79.6v-51.1H1608.2z"/>
				</g>
			</g>
			<g>
				<path class="st0" d="M1608.2,785.3c-3,17.2-7.2,34.2-12.7,51.1c-17.4,52.9-47,102.5-88.9,144.4
					c-64.9,64.9-148.2,100.4-233.1,106.3c-17,1.3-34,1.3-51.1,0c-84.9-5.9-168.3-41.4-233.1-106.3c-41.9-41.9-71.7-91.6-88.9-144.4
					c-5.6-16.7-9.7-33.7-12.7-51.1c-19.9-113.4,14-234.4,101.6-322c142.8-142.8,374.5-142.8,517.3,0
					C1594.2,550.9,1628.1,671.9,1608.2,785.3z"/>
			</g>
			<g>
				<g>
					<g>
						<path class="st3" d="M1475.6,816.2c52-125.6-7.7-269.7-133.3-321.8c-125.6-52-269.7,7.5-321.8,133.3
							c-52,125.6,7.7,269.7,133.3,321.8C1279.3,1001.5,1423.4,941.8,1475.6,816.2z M1138,676.4c25.1-60.7,94.8-89.6,155.5-64.5
							c60.7,25.1,89.6,94.8,64.5,155.5c-25.1,60.7-94.8,89.6-155.5,64.5C1141.5,806.8,1112.7,737.1,1138,676.4z"/>
					</g>
					<polygon class="st3" points="1427.5,856.5 1470,754 1551,801.8 1518.8,879.8 					"/>
					<polygon class="st3" points="1470,690 1427.5,587.5 1518.8,564.2 1551,642 					"/>
					<polygon class="st3" points="1382.4,542.3 1279.9,499.9 1327.9,418.9 1405.9,451.1 					"/>
					<polygon class="st3" points="1216.1,499.9 1113.6,542.3 1090.1,451.1 1168.1,418.9 					"/>
					<polygon class="st3" points="1068.3,587.5 1026,690 945,642 977.2,564.2 					"/>
					<polygon class="st3" points="1026,754 1068.3,856.5 977.2,879.8 945,801.8 					"/>
					<polygon class="st3" points="1113.6,901.6 1216.1,944.1 1168.1,1025.1 1090.1,992.8 					"/>
					<polygon class="st3" points="1279.9,944.1 1382.4,901.6 1405.9,992.8 1327.9,1025.1 					"/>
				</g>
			</g>
		</g>
	</g>
	<g>
		<g>
			
				<ellipse transform="matrix(0.7071 -0.7071 0.7071 0.7071 -750.1306 883.6349)" class="st0" cx="691.6" cy="1347.3" rx="164.3" ry="164.3"/>
		</g>
		<g>
			<path class="st3" d="M625.6,1347.3c0,36.4,29.6,65.9,65.9,65.9c36.4,0,65.9-29.6,65.9-65.9c0-36.4-29.6-65.9-65.9-65.9
				C655.2,1281.4,625.6,1310.7,625.6,1347.3z"/>
		</g>
		<g>
			<ellipse class="st0" cx="1248" cy="1598.5" rx="164.3" ry="164.3"/>
		</g>
		<g>
			<path class="st3" d="M1182,1598.5c0,36.4,29.6,65.9,65.9,65.9c36.4,0,65.9-29.6,65.9-65.9s-29.6-65.9-65.9-65.9
				C1211.6,1532.6,1182,1562.2,1182,1598.5z"/>
		</g>
		<g>
			<ellipse class="st0" cx="1808.3" cy="1347.3" rx="164.3" ry="164.3"/>
		</g>
		<g>
			<path class="st3" d="M1742.6,1347.3c0,36.4,29.6,65.9,65.9,65.9s65.9-29.6,65.9-65.9c0-36.4-29.6-65.9-65.9-65.9
				S1742.6,1310.7,1742.6,1347.3z"/>
		</g>
	</g>
</g>
</svg>
