<?xml version="1.0" encoding="utf-8"?>
<!-- Generator: Adobe Illustrator 26.5.0, SVG Export Plug-In . SVG Version: 6.00 Build 0)  -->
<svg version="1.1" id="Layer_1" xmlns="http://www.w3.org/2000/svg" xmlns:xlink="http://www.w3.org/1999/xlink" x="0px" y="0px"
	 viewBox="0 0 2500 2500" style="enable-background:new 0 0 2500 2500;" xml:space="preserve">
<style type="text/css">
	.st0{fill:#FFDB70;}
	.st1{opacity:0.4;fill:#FFDB70;}
	.st2{opacity:0.4;fill:#A0A6AA;}
	.st3{fill:#FFFFFF;}
</style>
<g>
	<path class="st0" d="M1934.8,1643c0-8.3-6.7-15-15-15h-124.5c19.1-8.2,32.5-27.2,32.5-49.3V910.3c0-29.7-24.1-53.7-53.7-53.7
		h-398.5v66h386.1v643.8H738.3V922.6h450.4v-66H726c-29.7,0-53.7,24-53.7,53.7v668.5c0,22.1,13.4,41.1,32.5,49.3H580.2
		c-8.3,0-15,6.7-15,15v31.5h0.1c1.3,43.1,36.7,77.7,80.1,77.7h1209.3c43.4,0,78.8-34.5,80.1-77.7h0.1V1643z M1921.4,1685.6H578.6
		c-0.9-3.6-1.4-7.3-1.7-11.1H1048c4-3.3,9.2-5.3,14.8-5.3h374.4c5.6,0,10.7,1.9,14.8,5.3h471.2
		C1922.8,1678.3,1922.3,1682,1921.4,1685.6z"/>
</g>
<g>
	<g>
		<g>
			<g>
				<path class="st1" d="M1289.3,1287.3l-40.5,45.2l-40.5-45.2h26.2V1160c9.5,0.7,19,0.7,28.5,0v127.4H1289.3z"/>
				<path class="st2" d="M1263.1,1120.5v39.5c-9.5,0.7-19,0.7-28.5,0v-39.5H1263.1z"/>
				<g>
					<path class="st1" d="M952.6,1070.3v78.9h26.2l-40.5,45.2l-40.5-45.2h26.2v-84.2c0-40.5,32.9-73.4,73.4-73.4h50.3
						c1.7,9.6,4,19.1,7.1,28.5h-52.1C975.1,1020.1,952.6,1042.6,952.6,1070.3z"/>
					<path class="st2" d="M1101.6,991.7v28.5h-46.7c-3.1-9.3-5.4-18.8-7.1-28.5H1101.6z"/>
				</g>
				<g>
					<path class="st1" d="M1602.1,1149.2l-40.5,45.2l-40.5-45.2h26.2v-78.9c0-27.7-22.5-50.2-50.2-50.2h-54.4
						c3.1-9.3,5.4-18.8,7.1-28.5h52.5c40.5,0,73.4,32.9,73.4,73.4v84.2H1602.1z"/>
					<path class="st2" d="M1449.9,991.7c-1.7,9.6-4,19.1-7.1,28.5h-44.4v-28.5H1449.9z"/>
				</g>
			</g>
			<g>
				<path class="st0" d="M1449.9,991.7c-1.7,9.6-4,19.1-7.1,28.5c-9.7,29.5-26.2,57.2-49.6,80.6c-36.2,36.2-82.7,56-130.1,59.3
					c-9.5,0.7-19,0.7-28.5,0c-47.4-3.3-93.9-23.1-130.1-59.3c-23.4-23.4-40-51.1-49.6-80.6c-3.1-9.3-5.4-18.8-7.1-28.5
					c-11.1-63.3,7.8-130.8,56.7-179.7c79.7-79.7,209-79.7,288.7,0C1442.1,860.9,1461,928.4,1449.9,991.7z"/>
			</g>
			<g>
				<g>
					<g>
						<path class="st3" d="M1375.9,1008.9c29-70.1-4.3-150.5-74.4-179.6c-70.1-29-150.5,4.2-179.6,74.4
							c-29,70.1,4.3,150.5,74.4,179.6C1266.4,1112.3,1346.8,1079,1375.9,1008.9z M1187.5,930.9c14-33.9,52.9-50,86.8-36
							c33.9,14,50,52.9,36,86.8c-14,33.9-52.9,50-86.8,36C1189.5,1003.7,1173.4,964.8,1187.5,930.9z"/>
					</g>
					<polygon class="st3" points="1349.1,1031.4 1372.8,974.2 1418,1000.9 1400,1044.4 					"/>
					<polygon class="st3" points="1372.8,938.5 1349.1,881.3 1400,868.3 1418,911.7 					"/>
					<polygon class="st3" points="1323.9,856.1 1266.7,832.4 1293.5,787.2 1337,805.2 					"/>
					<polygon class="st3" points="1231.1,832.4 1173.9,856.1 1160.8,805.2 1204.3,787.2 					"/>
					<polygon class="st3" points="1148.6,881.3 1125,938.5 1079.8,911.7 1097.8,868.3 					"/>
					<polygon class="st3" points="1125,974.2 1148.6,1031.4 1097.8,1044.4 1079.8,1000.9 					"/>
					<polygon class="st3" points="1173.9,1056.6 1231.1,1080.3 1204.3,1125.5 1160.8,1107.5 					"/>
					<polygon class="st3" points="1266.7,1080.3 1323.9,1056.6 1337,1107.5 1293.5,1125.5 					"/>
				</g>
			</g>
		</g>
	</g>
	<g>
		<g>
			<ellipse class="st0" cx="938.4" cy="1305.3" rx="91.7" ry="91.7"/>
		</g>
		<g>
			<path class="st3" d="M901.6,1305.3c0,20.3,16.5,36.8,36.8,36.8c20.3,0,36.8-16.5,36.8-36.8s-16.5-36.8-36.8-36.8
				C918.1,1268.5,901.6,1284.9,901.6,1305.3z"/>
		</g>
		<g>
			<ellipse class="st0" cx="1248.9" cy="1445.5" rx="91.7" ry="91.7"/>
		</g>
		<g>
			<path class="st3" d="M1212.1,1445.5c0,20.3,16.5,36.8,36.8,36.8s36.8-16.5,36.8-36.8s-16.5-36.8-36.8-36.8
				C1228.6,1408.7,1212.1,1425.2,1212.1,1445.5z"/>
		</g>
		<g>
			
				<ellipse transform="matrix(0.9135 -0.4068 0.4068 0.9135 -395.9594 748.1523)" class="st0" cx="1561.6" cy="1305.3" rx="91.7" ry="91.7"/>
		</g>
		<g>
			<path class="st3" d="M1524.9,1305.3c0,20.3,16.5,36.8,36.8,36.8c20.3,0,36.8-16.5,36.8-36.8s-16.5-36.8-36.8-36.8
				S1524.9,1284.9,1524.9,1305.3z"/>
		</g>
	</g>
</g>
</svg>
