<?xml version="1.0" encoding="utf-8"?>
<!-- Generator: Adobe Illustrator 26.5.0, SVG Export Plug-In . SVG Version: 6.00 Build 0)  -->
<svg version="1.1" id="Capa_1" xmlns="http://www.w3.org/2000/svg" xmlns:xlink="http://www.w3.org/1999/xlink" x="0px" y="0px"
	 viewBox="0 0 512 512" style="enable-background:new 0 0 512 512;" xml:space="preserve">
<style type="text/css">
	.st0{fill:#FFDB70;}
</style>
<g>
	<g>
		<path class="st0" d="M502.7,424.1c-6.9-10-16.5-16.4-27.4-18.4c5-13.3,11-34.4-6.2-51.5c-8.3-8.3-17.6-11.2-26.4-11.4
			c20.3-78.4-36.3-122.5-40.5-213.2C398.4,47.1,337.8,0,256,0c-81.8,0-142.4,47.1-146.2,129.6c-4.2,90.6-60.8,134.9-40.5,213.2
			c-8.8,0.2-18.1,3.1-26.4,11.4c-17.2,17.2-11.2,38.3-6.2,51.5c-10.8,2.1-20.5,8.4-27.4,18.4c-10.1,14.6-12.2,34-5.1,48.3
			c5.9,12,17.6,19.3,31.9,20c23.6,1.1,42.7,6.6,59.6,11.5c14.2,4.1,28.1,8.1,41.7,8.1c12.5,0,24.9-3.4,37.2-13.2
			c22.1,8.4,51.1,13.2,81.4,13.2s59.3-4.8,81.4-13.2c12.3,9.8,24.6,13.2,37.2,13.2c13.6,0,27.5-4,41.7-8.1
			c16.9-4.9,36-10.4,59.6-11.5c14.4-0.7,26-8,31.9-20C514.9,458.1,512.8,438.7,502.7,424.1z M139.8,130.9C142.8,64.2,191,30,256,30
			c64.8,0,113.2,33.9,116.2,100.9c4.4,96.7,59.1,139,41.2,205.3c-8.5-15.9-27.2-25.6-45.5-24.9c-6.7-39.8-30.9-52.5-33.5-90
			c3.1-2.4,6.5-4.9,10.2-7.5c19.2-13.6,15.9-42.4-4.8-51.8c15.8-39.8-6.3-88-42.9-88c-17.5,0-32.6,11.3-41,28.6
			C247.6,85.3,232.6,74,215,74c-36.8,0-58.6,48.5-42.9,88c-20.7,9.3-24,38.2-4.8,51.8c3.7,2.6,7.1,5.1,10.2,7.5
			c-2.6,37.6-26.8,50.3-33.5,90c-18.2-0.6-37,9.1-45.5,24.9C80.7,269.9,135.3,227.7,139.8,130.9z M256,180.2
			c23.8,0,48.5,3.4,71.3,9.1C277.6,224.5,282.8,241,256,241c-26.8,0-21.6-16.5-71.3-51.7C207.3,183.7,232.1,180.2,256,180.2z
			 M197.1,134.6c0-17.5,9.5-30.6,18-30.6c8.5,0,18,13.1,18,30.6c0,6.1-1.1,11.8-3.2,16.8c-9,0.8-19.7,2.2-27.9,3.6
			C198.8,149.4,197.1,142.2,197.1,134.6z M279,134.6c0-17.5,9.5-30.6,18-30.6s18,13.1,18,30.6c0,7.6-1.8,14.9-4.9,20.5
			c-8.1-1.4-18.8-2.9-27.9-3.6C280.1,146.4,279,140.6,279,134.6z M160.2,471.5c-14.6,14.6-25.9,12.3-56.2,3.6
			c-17.5-5.1-39.4-11.3-66.5-12.6c-5-0.2-6-2.3-6.5-3.3c-3.7-7.5,2.4-25.3,14.8-24.1c17.7,1.8,31-8.9,20.2-36.4
			c-9.3-23.7-4.6-31.4,21.3-21.3c27.9,10.9,38.1-3.1,36.4-20.2c-1.3-12.6,17.6-19.3,25.3-14.1c0.9,0.8,1.9,2.3,2.1,5.7
			C154.4,417.1,186.8,444.9,160.2,471.5z M330.9,347.4c-2.7,56.5-31.7,90.3-14,126.7c-17.2,5.1-38.5,7.9-60.9,7.9
			s-43.7-2.8-60.9-7.9c17.7-36.4-11.2-70.2-13.9-126.7c-0.4-8.9-3.4-16.7-8.4-22.8c2.1-33,22-45.7,31.1-79
			C215.9,258.4,229,271,256,271s40.1-12.6,52.2-25.5c9.1,33.2,28.9,46.1,31.1,79C334.3,330.6,331.3,338.5,330.9,347.4z M480.9,459.1
			c-0.5,1-1.5,3-6.5,3.3c-27.1,1.3-48.9,7.6-66.5,12.6c-30.4,8.7-41.6,11-56.2-3.6c-26.6-26.6,5.8-54.3,9.1-122.7
			c0.2-5,2.3-7.6,8.7-7.6c8.5,0,19.6,6,18.6,15.9c-1.8,17.8,9.1,30.9,36.4,20.2c23.7-9.3,31.4-4.6,21.3,21.3
			c-10.9,27.9,3.1,38.1,20.2,36.4C478.6,433.8,484.7,451.6,480.9,459.1z"/>
	</g>
</g>
</svg>
