<?xml version="1.0" encoding="utf-8"?>
<!-- Generator: Adobe Illustrator 26.5.0, SVG Export Plug-In . SVG Version: 6.00 Build 0)  -->
<svg version="1.1" id="Layer_1" xmlns="http://www.w3.org/2000/svg" xmlns:xlink="http://www.w3.org/1999/xlink" x="0px" y="0px"
	 viewBox="0 0 512 512" style="enable-background:new 0 0 512 512;" xml:space="preserve">
<style type="text/css">
	.st0{fill:#FFFFFF;}
	.st1{fill:#FFDB70;}
</style>
<circle class="st0" cx="301.8" cy="411.8" r="18.3"/>
<circle class="st0" cx="210.2" cy="100.2" r="18.3"/>
<path class="st1" d="M480.7,179.4c-20.7-21.1-48.5-32.8-78.1-32.8h-9.2c-4.7,0-8.6,3.8-8.6,8.6c0,4.7,3.8,8.6,8.6,8.6h9.2
	c24.9,0,48.3,9.8,65.8,27.6c17.5,17.8,26.8,41.4,26.4,66.3c-0.9,49.9-43.8,90.5-95.5,90.5H256c-4.7,0-8.6,3.8-8.6,8.6
	s3.8,8.6,8.6,8.6h92.2v37.2c0,24.9-9.8,48.3-27.6,65.8c-17.8,17.5-41.4,26.8-66.3,26.4c-49.9-0.9-90.5-43.8-90.5-95.5v-70
	c0-35.7,29-64.7,64.7-64.7h55c45.2,0,81.9-36.7,81.9-81.9v-73.3c0-29.6-11.6-57.3-32.8-78.1C311.5,10.6,283.6-0.5,254,0
	c-59.2,1.1-107.3,51.6-107.3,112.7v33.9h-37.2c-29.6,0-57.3,11.6-78.1,32.8C10.6,200.5-0.5,228.4,0,258
	c1.1,59.2,51.6,107.3,112.7,107.3h5.8c4.7,0,8.6-3.8,8.6-8.6s-3.8-8.6-8.6-8.6h-5.8c-51.8,0-94.6-40.6-95.5-90.5
	c-0.5-25,8.9-48.5,26.4-66.3c17.5-17.8,40.8-27.6,65.8-27.6H256c4.7,0,8.6-3.8,8.6-8.6c0-4.7-3.8-8.6-8.6-8.6h-92.2v-33.9
	c0-51.8,40.6-94.6,90.5-95.5c25-0.4,48.5,8.9,66.3,26.4c17.8,17.5,27.6,40.8,27.6,65.8v73.3c0,35.7-29,64.7-64.7,64.7h-55
	c-45.2,0-81.9,36.7-81.9,81.9v70c0,61.1,48.2,111.6,107.3,112.7c0.7,0,1.4,0,2.1,0c28.9,0,56-11.1,76.6-31.3
	c21.1-20.7,32.8-48.5,32.8-78.1v-37.2h33.9c61.1,0,111.6-48.2,112.7-107.3C512.5,228.4,501.4,200.5,480.7,179.4z"/>
</svg>
