<?xml version="1.0" encoding="utf-8"?>
<!-- Generator: Adobe Illustrator 26.5.0, SVG Export Plug-In . SVG Version: 6.00 Build 0)  -->
<svg version="1.1" id="line" xmlns="http://www.w3.org/2000/svg" xmlns:xlink="http://www.w3.org/1999/xlink" x="0px" y="0px"
	 viewBox="0 0 64 64" style="enable-background:new 0 0 64 64;" xml:space="preserve">
<style type="text/css">
	.st0{fill:#FFDB70;}
</style>
<path class="st0" d="M55.5,22c-2.1,0-3.8,1.7-3.8,3.8v10.6c-2.3-1.3-5.2-0.9-7,0.9l-6.9,6.3C36,45.2,35,47.4,35,49.8V59
	c0,0.6,0.4,1,1,1h12.6c0.6,0,1-0.4,1-1v-1.6c0-1,0.3-2,0.9-2.8l7.5-10c0.9-1.2,1.3-2.6,1.3-4V25.8C59.3,23.7,57.6,22,55.5,22z
	 M57.3,40.6c0,1-0.3,2-0.9,2.8l-7.5,10c-0.9,1.2-1.3,2.6-1.3,4V58H37v-8.2c0-1.8,0.7-3.5,2.1-4.7l6.9-6.3c0.7-0.7,1.7-1.1,2.7-1.1
	c0.8-0.1,3.6,0.9,2.7,2l-7.6,7.6c-0.4,0.4-0.4,1,0,1.4c0.4,0.4,1,0.4,1.4,0l7.6-7.6c0.5-0.5,0.8-1.2,0.8-1.9V25.8
	c0-1,0.9-1.8,1.9-1.8c1,0,1.8,0.8,1.8,1.8L57.3,40.6z"/>
<path class="st0" d="M19.4,37.4c-1.9-1.9-4.8-2.3-7.1-1V25.8c0-2.1-1.7-3.8-3.8-3.8s-3.8,1.7-3.8,3.8v14.8c0,1.4,0.5,2.9,1.3,4
	l7.5,10c0.6,0.8,0.9,1.8,0.9,2.8V59c0,0.6,0.4,1,1,1H28c0.6,0,1-0.4,1-1v-9.2c0-2.3-1-4.6-2.7-6.1L19.4,37.4z M27,58H16.4
	c0.1-1.6-0.4-3.3-1.3-4.6l-7.5-10c-0.6-0.8-0.9-1.8-0.9-2.8V25.8c0-1,0.9-1.8,1.9-1.8c0.5,0,0.9,0.2,1.3,0.5
	c0.3,0.3,0.5,0.8,0.5,1.3v13.4c0,0.7,0.3,1.3,0.8,1.8l7.6,7.6c0.4,0.4,1,0.4,1.4,0c0.4-0.4,0.4-1,0-1.4l-7.6-7.6
	c-0.2-0.2-0.3-0.6,0-0.8c0,0,0,0,0,0c1.5-1.5,4-1.5,5.5,0c0,0,0,0,0,0l6.9,6.3c1.3,1.2,2.1,2.9,2.1,4.7V58z"/>
<path class="st0" d="M35.8,37.5c0-0.1,0-0.2,0.1-0.2c1.4-0.4,2.8-0.9,4.1-1.7c0.1-0.1,0.2,0,0.3,0.1c0.8,1,2.2,1.1,3.1,0.4
	c0.1,0,0.1-0.1,0.2-0.2l2.2-2.2c0.9-0.9,0.8-2.3,0-3.1c-0.1,0-0.1-0.1-0.2-0.1c-0.1-0.1-0.1-0.2-0.1-0.3c0.8-1.3,1.3-2.7,1.7-4.1
	c0-0.1,0.1-0.2,0.2-0.1c1.2,0.1,2.3-0.7,2.5-2c0-0.1,0-0.2,0-0.2v-3.2c0-0.6-0.3-1.2-0.8-1.7c-0.5-0.4-1.1-0.6-1.7-0.5
	c-0.1,0-0.2,0-0.2-0.1c-0.4-1.4-0.9-2.8-1.7-4.1c-0.1-0.1,0-0.2,0.1-0.3c1-0.8,1.1-2.2,0.4-3.1c0-0.1-0.1-0.1-0.2-0.2l-2.2-2.2
	c-0.9-0.9-2.3-0.8-3.2,0c-0.1,0.1-0.1,0.1-0.2,0.2c-0.1,0.1-0.2,0.1-0.3,0.1c-1.3-0.8-2.7-1.3-4.1-1.7c-0.1,0-0.2-0.1-0.1-0.2
	c0.1-0.6-0.1-1.3-0.5-1.7c-0.4-0.5-1-0.8-1.7-0.8h-3.2c-0.6,0-1.2,0.3-1.7,0.8c-0.4,0.5-0.6,1.1-0.5,1.7c0,0.1,0,0.2-0.1,0.2
	c-1.4,0.4-2.8,0.9-4.1,1.7c-0.1,0.1-0.2,0-0.3-0.1c-0.8-1-2.2-1.1-3.1-0.4c-0.1,0-0.1,0.1-0.2,0.2l-2.2,2.2c-0.9,0.9-0.8,2.3,0,3.2
	c0.1,0.1,0.1,0.1,0.2,0.2c0.1,0.1,0.1,0.2,0.1,0.3c-0.8,1.3-1.3,2.7-1.7,4.1c0,0.1-0.1,0.2-0.2,0.1c-1.2-0.1-2.3,0.7-2.5,2
	c0,0.1,0,0.2,0,0.2v3.2c0,1.2,1,2.2,2.2,2.2c0.1,0,0.2,0,0.2,0c0.1,0,0.2,0,0.2,0.1c0.4,1.4,0.9,2.8,1.7,4.1c0.1,0.1,0,0.2-0.1,0.3
	c-1,0.8-1.1,2.2-0.3,3.1c0,0.1,0.1,0.1,0.1,0.2l2.2,2.2c0.9,0.9,2.3,0.8,3.2,0c0.1-0.1,0.1-0.1,0.2-0.2c0.1-0.1,0.2-0.1,0.3-0.1
	c1.3,0.8,2.7,1.3,4.1,1.7c0.1,0,0.2,0.1,0.1,0.2c-0.1,1.2,0.7,2.3,2,2.5c0.1,0,0.2,0,0.2,0l3.2,0c1.2,0,2.2-1,2.2-2.2
	C35.8,37.7,35.8,37.6,35.8,37.5z M33.8,37.8c0,0.2-0.1,0.2-0.2,0.2h-3.2c-0.1,0-0.2-0.1-0.2-0.2c0,0,0,0,0,0
	c0.1-1.1-0.6-2.1-1.6-2.4c-2.2-0.2-4.6-3.2-6.4-0.9c-0.1,0.1-0.2,0.1-0.3,0c0,0,0,0,0,0l-2.2-2.2c-0.1-0.1-0.1-0.2,0-0.3
	c0,0,0,0,0,0c0.9-0.7,1.1-1.9,0.5-2.9c-1.4-1.8-1-5.5-3.9-5.2c-0.2,0-0.2-0.1-0.2-0.2v-3.2c0-0.1,0.1-0.2,0.2-0.2c0,0,0,0,0.1,0
	c2.9,0.3,2.5-3.4,3.9-5.2c0.6-1,0.3-2.2-0.5-2.9c-0.1-0.1-0.1-0.2,0-0.3c0,0,0,0,0,0l2.2-2.2c0.1-0.1,0.2-0.1,0.3,0c0,0,0,0,0,0
	c1.9,2.2,4.3-0.7,6.5-0.9c1.1-0.3,1.8-1.3,1.6-2.4c0-0.2,0.1-0.2,0.2-0.2l3.2,0c0.1,0,0.2,0.1,0.2,0.2c0,0,0,0,0,0
	c-0.1,1.1,0.6,2.1,1.6,2.4c2.2,0.2,4.6,3.1,6.4,1c0.1-0.1,0.2-0.1,0.3-0.1c0,0,0,0,0,0l2.2,2.2c0.1,0.1,0.1,0.2,0,0.3c0,0,0,0,0,0
	c-0.9,0.7-1.1,1.9-0.5,2.9c1.4,1.8,1,5.5,3.9,5.2c0.2,0,0.2,0.1,0.2,0.2v3.2c0,0.1-0.1,0.2-0.2,0.2c0,0,0,0,0,0
	c-1.1-0.1-2.1,0.6-2.4,1.6c-0.2,2.2-3.2,4.6-0.9,6.5c0.1,0.1,0.1,0.2,0,0.3c0,0,0,0,0,0l-2.2,2.2c-0.1,0.1-0.2,0.1-0.3,0
	c0,0,0,0,0,0c-0.7-0.9-1.9-1.1-2.9-0.5C37.2,35.3,33.5,34.9,33.8,37.8z"/>
<path class="st0" d="M43,22c0-6.1-4.9-11-11-11c-14.6,0.6-14.6,21.4,0,22C38.1,33,43,28.1,43,22z M32,31c-5,0-9-4-9-9
	c0.5-11.9,17.5-11.9,18,0C41,27,37,31,32,31z"/>
<path class="st0" d="M33.4,27H33v-6.8c0-0.6-0.4-1-1-1h-1.4c-0.6,0-1,0.5-1,1c0,0.5,0.4,1,1,1H31V27h-0.4c-0.6,0-1,0.5-1,1
	c0,0.5,0.4,1,1,1h2.9c0.6,0,1-0.5,1-1C34.4,27.4,34,27,33.4,27z"/>
<path class="st0" d="M31.8,18c0.8,0,1.5-0.7,1.5-1.5c0-0.8-0.7-1.5-1.5-1.5c-0.8,0-1.5,0.7-1.5,1.5C30.3,17.3,31,17.9,31.8,18z"/>
</svg>
